#!OML:ASF E:\motion texture\Top Level 1\Subject 1\Session 1\male.ASF
:FULLY-SPECIFIED
:DEGREES
127
root 15.3699 17.832 5.54377 178.527 -82.6414 -175.903
lowerback -0.70962 -1.01822 -0.911283
upperback -2.49998 -1.3721 3.26753
thorax -2.06881 -0.660872 3.8913
lowerneck -13.0702 -3.87526 -6.58181
upperneck 21.3333 -6.32834 8.54997
head 9.34623 -2.7485 3.26133
rclavicle 2.34566e-014 -3.18055e-014
rhumerus -21.9585 -35.3644 -28.3142
rradius 64.4579
rwrist -18.5733
rhand -14.5883 -29.5136
rfingers 7.12502
rthumb 11.5618 -59.1747
lclavicle 2.34566e-014 -3.18055e-014
lhumerus -5.11829 34.5723 32.8311
lradius 52.3783
lwrist 12.3973
lhand -12.7001 26.3269
lfingers 7.12502
lthumb 13.3822 55.8771
rfemur -15.4505 -1.97396 17.5772
rtibia 65.5454
rfoot 8.39641 -14.8959
rtoes 8.89049
lfemur -13.6797 -1.0631 -20.5581
ltibia 16.7988
lfoot -4.01105 3.24216
ltoes 4.65199
128
root 15.2437 17.8433 5.54256 177.636 -82.986 -175.1
lowerback -0.739573 -1.1636 -0.957198
upperback -2.49966 -1.56706 3.34102
thorax -2.03426 -0.757947 3.99428
lowerneck -13.0666 -3.84661 -6.67649
upperneck 21.3684 -6.21474 8.34398
head 9.34385 -2.72263 3.22063
rclavicle -1.40143e-014 3.57812e-014
rhumerus -23.023 -34.4267 -30.1123
rradius 64.052
rwrist -18.0302
rhand -14.804 -29.6058
rfingers 7.12502
rthumb 11.3538 -59.2785
lclavicle -1.40143e-014 3.57812e-014
lhumerus -5.88307 33.6488 35.0084
lradius 52.688
lwrist 12.0396
lhand -12.7207 26.6268
lfingers 7.12502
lthumb 13.3625 56.1783
rfemur -16.5785 -2.38782 17.7564
rtibia 66.4567
rfoot 7.69519 -15.6526
rtoes 9.3651
lfemur -12.9693 -1.24909 -20.5734
ltibia 16.523
lfoot -4.32923 3.05039
ltoes 4.60092
129
root 15.1183 17.8548 5.54169 176.702 -83.3173 -174.243
lowerback -0.784314 -1.30502 -1.00132
upperback -2.49404 -1.75691 3.40915
thorax -1.98572 -0.852814 4.08982
lowerneck -13.0819 -3.81508 -6.73094
upperneck 21.3991 -6.10352 8.1328
head 9.34251 -2.69479 3.17067
rclavicle 2.67365e-014 2.3059e-014
rhumerus -24.0428 -33.5181 -31.9398
rradius 63.4924
rwrist -17.3706
rhand -15.0166 -29.6476
rfingers 7.12502
rthumb 11.1487 -59.3315
lclavicle 2.67365e-014 2.3059e-014
lhumerus -6.68684 32.6851 37.1942
lradius 52.9594
lwrist 11.628
lhand -12.6952 26.8966
lfingers 7.12502
lthumb 13.387 56.4465
rfemur -17.6996 -2.76704 17.9344
rtibia 67.203
rfoot 7.01508 -16.2613
rtoes 9.70968
lfemur -12.2574 -1.43038 -20.5889
ltibia 16.2173
lfoot -4.6216 2.86839
ltoes 4.4713
130
root 14.9937 17.8663 5.54097 175.935 -83.6406 -173.544
lowerback -0.838926 -1.44836 -1.07139
upperback -2.4796 -1.94938 3.46397
thorax -1.92122 -0.948808 4.1853
lowerneck -13.1375 -3.77746 -6.74308
upperneck 21.4291 -5.99253 7.9293
head 9.34778 -2.6618 3.1157
rclavicle -1.33186e-014 6.36111e-015
rhumerus -24.9944 -32.6475 -33.8122
rradius 62.7724
rwrist -16.5704
rhand -15.2579 -29.62
rfingers 7.12502
rthumb 10.916 -59.3162
lclavicle -1.33186e-014 6.36111e-015
lhumerus -7.49199 31.7224 39.3973
lradius 53.1513
lwrist 11.0898
lhand -12.5823 27.1043
lfingers 7.12502
lthumb 13.4958 56.647
rfemur -18.8121 -3.11404 18.0855
rtibia 67.785
rfoot 6.35008 -16.6959
rtoes 9.96176
lfemur -11.5469 -1.60843 -20.6325
ltibia 15.8897
lfoot -4.90314 2.70197
ltoes 4.37231
131
root 14.8698 17.8773 5.54069 175.434 -83.9608 -173.107
lowerback -0.900395 -1.5982 -1.17377
upperback -2.45303 -2.15039 3.5037
thorax -1.83826 -1.04887 4.28233
lowerneck -13.2408 -3.73678 -6.71986
upperneck 21.4609 -5.88525 7.73848
head 9.36254 -2.62517 3.05816
rclavicle -9.24349e-015 3.73715e-014
rhumerus -25.8393 -31.8483 -35.7281
rradius 61.8606
rwrist -15.5471
rhand -15.4014 -29.4312
rfingers 7.12502
rthumb 10.7776 -59.1347
lclavicle -9.24349e-015 3.73715e-014
lhumerus -8.31109 30.7353 41.5864
lradius 53.2561
lwrist 10.4449
lhand -12.4479 27.2735
lfingers 7.12502
lthumb 13.6254 56.8076
rfemur -19.9045 -3.43638 18.1963
rtibia 68.206
rfoot 5.67263 -16.9423
rtoes 10.1706
lfemur -10.8309 -1.78545 -20.7206
ltibia 15.5383
lfoot -5.17374 2.55067
ltoes 4.29431
132
root 14.7466 17.8876 5.54046 175.255 -84.2715 -172.98
lowerback -0.96466 -1.74859 -1.30575
upperback -2.41707 -2.35182 3.52589
thorax -1.74262 -1.14895 4.37689
lowerneck -13.3932 -3.69565 -6.66926
upperneck 21.4885 -5.78581 7.57261
head 9.386 -2.58612 3.00311
rclavicle -1.56543e-014 2.38542e-015
rhumerus -26.5842 -31.1301 -37.6722
rradius 60.7541
rwrist -14.3025
rhand -15.5008 -29.1114
rfingers 7.12502
rthumb 10.6817 -58.8199
lclavicle -1.56543e-014 2.38542e-015
lhumerus -9.10251 29.7623 43.7929
lradius 53.2528
lwrist 9.62814
lhand -12.2506 27.3627
lfingers 7.12502
lthumb 13.8155 56.8839
rfemur -20.9867 -3.72532 18.2714
rtibia 68.4734
rfoot 4.97314 -17.014
rtoes 10.3649
lfemur -10.1244 -1.95731 -20.8478
ltibia 15.1768
lfoot -5.44452 2.41762
ltoes 4.27525
133
root 14.6241 17.8968 5.54025 175.347 -84.5764 -173.119
lowerback -1.02045 -1.89603 -1.45366
upperback -2.37523 -2.54885 3.53406
thorax -1.64498 -1.24675 4.46535
lowerneck -13.5807 -3.6586 -6.61087
upperneck 21.5048 -5.69855 7.44046
head 9.41416 -2.54771 2.9565
rclavicle 1.22253e-014 1.82882e-014
rhumerus -27.2314 -30.493 -39.6177
rradius 59.4395
rwrist -12.8503
rhand -15.5608 -28.6687
rfingers 7.12502
rthumb 10.6238 -58.3801
lclavicle 1.22253e-014 1.82882e-014
lhumerus -9.84689 28.812 46.0413
lradius 53.1374
lwrist 8.62744
lhand -12.0373 27.3817
lfingers 7.12502
lthumb 14.0211 56.8888
rfemur -22.048 -3.98408 18.3199
rtibia 68.5811
rfoot 4.24876 -16.9425
rtoes 10.4979
lfemur -9.42586 -2.12289 -21.0031
ltibia 14.8114
lfoot -5.7153 2.29522
ltoes 4.33016
134
root 14.5022 17.9047 5.54008 175.649 -84.8671 -173.457
lowerback -1.05985 -2.03024 -1.60492
upperback -2.33961 -2.72779 3.53343
thorax -1.56381 -1.33527 4.54687
lowerneck -13.7719 -3.63077 -6.55412
upperneck 21.5027 -5.62851 7.33464
head 9.43907 -2.51466 2.91699
rclavicle -6.90777e-015 7.95139e-016
rhumerus -27.8076 -29.9191 -41.5253
rradius 57.916
rwrist -11.2514
rhand -15.6211 -28.1349
rfingers 7.12502
rthumb 10.5656 -57.8493
lclavicle -6.90777e-015 7.95139e-016
lhumerus -10.5716 27.8374 48.3324
lradius 52.9386
lwrist 7.52019
lhand -11.8335 27.3479
lfingers 7.12502
lthumb 14.2174 56.8413
rfemur -23.093 -4.20306 18.3535
rtibia 68.5368
rfoot 3.48468 -16.7647
rtoes 10.5161
lfemur -8.74413 -2.27942 -21.1735
ltibia 14.4532
lfoot -5.98939 2.18153
ltoes 4.42951
135
root 14.3811 17.9108 5.54009 176.076 -85.1335 -173.914
lowerback -1.07599 -2.14397 -1.74592
upperback -2.31623 -2.87908 3.52756
thorax -1.51072 -1.40966 4.61825
lowerneck -13.9475 -3.61267 -6.49911
upperneck 21.4782 -5.5755 7.24692
head 9.45524 -2.48827 2.8819
rclavicle -1.1778e-014 -4.77083e-015
rhumerus -28.3285 -29.3909 -43.3733
rradius 56.1822
rwrist -9.54988
rhand -15.6726 -27.5334
rfingers 7.12502
rthumb 10.516 -57.2503
lclavicle -1.1778e-014 -4.77083e-015
lhumerus -11.2862 26.8302 50.6702
lradius 52.6643
lwrist 6.32146
lhand -11.6709 27.2841
lfingers 7.12502
lthumb 14.3741 56.7664
rfemur -24.1211 -4.37456 18.3831
rtibia 68.3354
rfoot 2.71198 -16.5222
rtoes 10.4068
lfemur -8.08357 -2.41811 -21.3456
ltibia 14.1103
lfoot -6.26288 2.07452
ltoes 4.53251
136
root 14.2605 17.9153 5.54011 176.619 -85.3899 -174.481
lowerback -1.06392 -2.23879 -1.88159
upperback -2.30887 -3.00503 3.51933
thorax -1.49207 -1.47073 4.6859
lowerneck -14.0893 -3.60451 -6.44398
upperneck 21.4296 -5.54007 7.17119
head 9.4584 -2.46979 2.84886
rclavicle 2.10712e-014 -7.95139e-016
rhumerus -28.8142 -28.8711 -45.1494
rradius 54.2602
rwrist -7.83254
rhand -15.7807 -26.9318
rfingers 7.12502
rthumb 10.4118 -56.654
lclavicle 2.10712e-014 -7.95139e-016
lhumerus -12.0015 25.7629 53.0532
lradius 52.3193
lwrist 5.07115
lhand -11.6354 27.2638
lfingers 7.12502
lthumb 14.4083 56.7437
rfemur -25.116 -4.51296 18.4062
rtibia 67.9676
rfoot 1.94188 -16.2568
rtoes 10.2237
lfemur -7.44268 -2.54408 -21.5181
ltibia 13.7938
lfoot -6.54457 1.9631
ltoes 4.64053
137
root 14.1404 17.9181 5.54004 177.231 -85.6384 -175.12
lowerback -1.02394 -2.31986 -2.01481
upperback -2.31189 -3.11272 3.5137
thorax -1.50101 -1.52209 4.75661
lowerneck -14.199 -3.60154 -6.38727
upperneck 21.3565 -5.5152 7.10544
head 9.44811 -2.45596 2.81781
rclavicle 1.07841e-014 -1.66979e-014
rhumerus -29.2585 -28.3482 -46.8568
rradius 52.1706
rwrist -6.11708
rhand -15.9555 -26.4042
rfingers 7.12502
rthumb 10.243 -56.1348
lclavicle 1.07841e-014 -1.66979e-014
lhumerus -12.7438 24.607 55.4571
lradius 51.9122
lwrist 3.83035
lhand -11.6598 27.2698
lfingers 7.12502
lthumb 14.3848 56.7513
rfemur -26.0636 -4.6241 18.4243
rtibia 67.4274
rfoot 1.18634 -16.0013
rtoes 9.95327
lfemur -6.81332 -2.65613 -21.6857
ltibia 13.5043
lfoot -6.83055 1.843
ltoes 4.68773
138
root 14.0204 17.919 5.53993 177.965 -85.8802 -175.88
lowerback -0.961744 -2.39069 -2.14827
upperback -2.32298 -3.20694 3.50743
thorax -1.53163 -1.56614 4.8283
lowerneck -14.2871 -3.60096 -6.32358
upperneck 21.2663 -5.50084 7.05964
head 9.42901 -2.44506 2.79128
rclavicle 3.91109e-014 3.18055e-015
rhumerus -29.6674 -27.8125 -48.5052
rradius 49.9467
rwrist -4.40223
rhand -16.052 -25.9573
rfingers 7.12502
rthumb 10.15 -55.6925
lclavicle 3.91109e-014 3.18055e-015
lhumerus -13.5057 23.3551 57.8661
lradius 51.4282
lwrist 2.6239
lhand -11.7224 27.2982
lfingers 7.12502
lthumb 14.3245 56.784
rfemur -26.9622 -4.71687 18.4319
rtibia 66.7155
rfoot 0.454239 -15.7788
rtoes 9.65437
lfemur -6.20247 -2.7574 -21.8517
ltibia 13.2511
lfoot -7.13797 1.72217
ltoes 4.7192
139
root 13.9013 17.9181 5.53989 178.967 -86.0855 -176.907
lowerback -0.879629 -2.46359 -2.30148
upperback -2.36549 -3.30448 3.5124
thorax -1.60346 -1.61032 4.92512
lowerneck -14.2381 -3.58323 -6.28884
upperneck 21.1267 -5.47122 7.05253
head 9.36775 -2.42943 2.78612
rclavicle -1.18774e-014 1.43125e-014
rhumerus -30.0406 -27.1871 -50.1079
rradius 47.618
rwrist -2.73083
rhand -16.041 -25.5968
rfingers 7.12502
rthumb 10.1606 -55.3315
lclavicle -1.18774e-014 1.43125e-014
lhumerus -14.3905 22.0265 60.224
lradius 50.8775
lwrist 1.46259
lhand -11.7732 27.3172
lfingers 7.12502
lthumb 14.2755 56.8065
rfemur -27.825 -4.77258 18.4202
rtibia 65.8535
rfoot -0.263178 -15.6012
rtoes 9.29115
lfemur -5.60587 -2.83715 -22.0271
ltibia 13.0223
lfoot -7.4573 1.61833
ltoes 4.73521
140
root 13.7819 17.9156 5.53977 180.224 -86.2883 -178.188
lowerback -0.783115 -2.54061 -2.4638
upperback -2.39938 -3.40791 3.51049
thorax -1.67327 -1.65722 5.02058
lowerneck -14.2346 -3.56387 -6.24529
upperneck 21.0025 -5.45199 7.09379
head 9.32244 -2.41189 2.79459
rclavicle -3.91606e-014 6.36111e-015
rhumerus -30.3467 -26.5901 -51.6911
rradius 45.1996
rwrist -1.07065
rhand -15.7608 -25.2173
rfingers 7.12502
rthumb 10.4309 -54.9386
lclavicle -3.91606e-014 6.36111e-015
lhumerus -15.2825 20.6584 62.5533
lradius 50.2376
lwrist 0.305224
lhand -11.7014 27.2174
lfingers 7.12502
lthumb 14.3447 56.7018
rfemur -28.6274 -4.83102 18.3883
rtibia 64.8271
rfoot -0.972152 -15.4844
rtoes 8.91719
lfemur -5.02628 -2.91409 -22.2119
ltibia 12.8251
lfoot -7.79441 1.51837
ltoes 4.73
141
root 13.6623 17.9117 5.5398 181.689 -86.4683 -179.676
lowerback -0.677013 -2.62197 -2.62226
upperback -2.42545 -3.51754 3.49731
thorax -1.7401 -1.70725 5.1026
lowerneck -14.2605 -3.53884 -6.19036
upperneck 20.8901 -5.4414 7.1926
head 9.28886 -2.39111 2.81976
rclavicle -2.88238e-014 2.14687e-014
rhumerus -30.5872 -26.0615 -53.258
rradius 42.7012
rwrist 0.613813
rhand -15.2902 -24.8063
rfingers 7.12502
rthumb 10.8849 -54.5042
lclavicle -2.88238e-014 2.14687e-014
lhumerus -16.2056 19.2815 64.8255
lradius 49.5195
lwrist -0.93068
lhand -11.4658 26.9346
lfingers 7.12502
lthumb 14.5717 56.4028
rfemur -29.3717 -4.88256 18.3422
rtibia 63.6457
rfoot -1.6621 -15.434
rtoes 8.53415
lfemur -4.4593 -2.98065 -22.4009
ltibia 12.6481
lfoot -8.1365 1.43443
ltoes 4.71948
